# AST/ASF file generated using VICON BodyLanguage
# -----------------------------------------------
:version 1.10
:name VICON
:units
  mass 1.0
  length 0.45
  angle deg
:documentation
   .ast/.asf automatically generated from VICON data using
   VICON BodyBuilder and BodyLanguage model FoxedUp or BRILLIANT.MOD
:root
   order TX TY TZ RX RY RZ
   axis XYZ
   position 0 0 0  
   orientation 0 0 0 
:bonedata
  begin
     id 1 
     name lhipjoint
     direction 0.578396 -0.714046 0.394458 
     length 2.21935 
     axis 0 0 0  XYZ
  end
  begin
     id 2 
     name lfemur
     direction 0.34202 -0.939693 0  
     length 6.39105  
     axis 0 0 20  XYZ
    dof rx ry rz
    limits (-160.0 20.0)
           (-70.0 70.0)
           (-60.0 70.0)
  end
  begin
     id 3 
     name ltibia
     direction 0.34202 -0.939693 0   
     length 6.99037   
     axis 0 0 20   XYZ
    dof rx
    limits (-10.0 170.0)
  end
  begin
     id 4 
     name lfoot
     direction 0.0582372 -0.160005 0.985397   
     length 2.06111   
     axis -90 7.62852e-016 20   XYZ
    dof rx rz
    limits (-45.0 90.0)
           (-70.0 20.0)
  end
  begin
     id 5 
     name ltoes
     direction 1.53556e-011 -4.21875e-011 1   
     length 1.04074   
     axis -90 7.62852e-016 20   XYZ
    dof rx
    limits (-90.0 20.0)
  end
  begin
     id 6 
     name rhipjoint
     direction -0.558179 -0.726269 0.40121   
     length 2.182  
     axis 0 0 0  XYZ 
  end
  begin
     id 7 
     name rfemur
     direction -0.34202 -0.939693 0   
     length 6.51172   
     axis 0 0 -20   XYZ
    dof rx ry rz
    limits (-160.0 20.0)
           (-70.0 70.0)
           (-70.0 60.0)
  end
  begin
     id 8 
     name rtibia
     direction -0.34202 -0.939693 0   
     length 7.02607   
     axis 0 0 -20   XYZ
    dof rx
    limits (-10.0 170.0)
 end
 begin
     id 9 
     name rfoot
     direction -0.0788856 -0.216737 0.973038   
     length 1.96734  
     axis -90 -7.62852e-016 -20   XYZ
    dof rx rz
    limits (-45.0 90.0)
           (-20.0 70.0)
  end
  begin
     id 10 
     name rtoes
     direction -1.53567e-011 -4.21783e-011 1   
     length 0.990825   
     axis -90 -7.62852e-016 -20   XYZ
    dof rx
    limits (-90.0 20.0)
  end
  begin
     id 11 
     name lowerback
     direction 0.00668177 0.999323 -0.0361741   
     length 1.7655   
     axis 0 0 0   XYZ
    dof rx ry rz
    limits (-20.0 45.0)
           (-30.0 30.0)
           (-30.0 30.0)
  end
  begin
     id 12 
     name upperback
     direction -0.00222086 0.99851 0.0545167   
     length 1.74912   
     axis 0 0 0   XYZ
    dof rx ry rz
    limits (-20.0 45.0)
           (-30.0 30.0)
           (-30.0 30.0)
  end
  begin
     id 13 
     name thorax
     direction -0.00733971 0.997496 0.0703443   
     length 1.75715   
     axis 0 0 0   XYZ
    dof rx ry rz
    limits (-20.0 45.0)
           (-30.0 30.0)
           (-30.0 30.0)
  end
  begin
     id 14 
     name lowerneck
     direction 0.0279797 0.994795 0.0979765   
     length 1.46939   
     axis 0 0 0   XYZ
    dof rx ry rz
    limits (-20.0 45.0)
           (-30.0 30.0)
           (-30.0 30.0)
  end
  begin
     id 15 
     name upperneck
     direction 0.00339187 0.976776 -0.214238   
     length 1.48018   
     axis 0 0 0   XYZ
    dof rx ry rz
    limits (-20.0 45.0)
           (-30.0 30.0)
           (-30.0 30.0)
  end
  begin
     id 16
     name head
     direction -0.00263506 0.996603 -0.0823096  
     length 1.4976  
     axis 0 0 0   XYZ
    dof rx ry rz
    limits (-20.0 45.0)
           (-30.0 30.0)
           (-30.0 30.0)
  end
  begin
     id 17 
     name lclavicle
     direction 0.894044 0.44508 -0.0508781  
     length 3.03024  
     axis 0 0 0   XYZ
    dof ry rz
    limits (-20.0 10.0)
           (0.0 20.0)
  end
  begin
     id 18 
     name lhumerus
     direction 1 -4.48961e-011 -2.39475e-018   
     length 4.4661   
     axis 180 -30 -90   XYZ
    dof rx ry rz
    limits (-60.0 90.0)
           (-90.0 90.0)
           (-90.0 90.0)
  end
  begin
     id 19
     name lradius
     direction 1 -4.48961e-011 9.29328e-028   
     length 3.41414   
     axis 180 -30 -90   XYZ
    dof rx
    limits (-10.0 170.0)
  end
  begin
     id 20
     name lwrist
     direction 1 -4.48985e-011 1.53461e-026   
     length 1.70707   
     axis -1.09697e-014 90 90   XYZ
    dof ry
    limits (-180.0 0.0)
 end
  begin
     id 21 
     name lhand
     direction 1 -4.48966e-011 3.06923e-026   
     length 0.328298   
     axis -1.95843e-014 90 90   XYZ
    dof rx rz
    limits (-90.0 90.0)
           (-45.0 45.0)
  end
  begin
     id 22 
     name lfingers
     direction 1 -4.48893e-011 6.13845e-026   
     length 0.264682   
     axis -3.91686e-014 90 90   XYZ
    dof rx
    limits (0.0 90.0)
  end
  begin
     id 23
     name lthumb
     direction 0.707107 -6.34876e-011 0.707107   
     length 0.380032   
     axis -90 45 2.85299e-015   XYZ
    dof rx rz
    limits (-45.0 45.0)
           (-45.0 45.0)
  end
  begin
     id 24 
     name rclavicle
     direction -0.936955 0.347862 -0.0332887   
     length 3.26927  
     axis 0 0 0   XYZ 
    dof ry rz
    limits (-10.0 20.0)
           (-20.0 0.0)
  end
  begin
     id 25 
     name rhumerus
     direction -1 -4.4896e-011 1.78637e-018  
     length 4.40431   
     axis 180 30 90   XYZ
    dof rx ry rz
    limits (-90.0 60.0)
           (-90.0 90.0)
           (-90.0 90.0)
  end
  begin
     id 26 
     name rradius
     direction -1 -4.48955e-011 9.34036e-027   
     length 3.04688   
     axis 180 30 90   XYZ
    dof rx
    limits (-10.0 170.0)
  end
  begin
     id 27 
     name rwrist
     direction -1 -4.49011e-011 1.53461e-026   
     length 1.52344   
     axis -1.09697e-014 -90 -90   XYZ
    dof ry
    limits (-180.0 0.0)
  end
  begin
     id 28
     name rhand
     direction -1 -4.48834e-011 3.06923e-026   
     length 0.500489   
     axis -1.95843e-014 -90 -90   XYZ
    dof rx rz
    limits (-90.0 90.0)
           (-45.0 45.0)
  end
  begin
     id 29
     name rfingers
     direction -1 -4.48967e-011 6.13845e-026   
     length 0.403507   
     axis -3.91686e-014 -90 -90   XYZ
    dof rx
    limits (0.0 90.0)
  end
  begin
     id 30
     name rthumb
     direction -0.707107 -6.34826e-011 0.707107   
     length 0.579358   
     axis -90 -45 -2.85299e-015   XYZ
    dof rx rz
    limits (-45.0 45.0)
           (-45.0 45.0)
  end
:hierarchy
  begin
    root lhipjoint rhipjoint lowerback
    lhipjoint lfemur
    lfemur ltibia
    ltibia lfoot
    lfoot ltoes
    rhipjoint rfemur
    rfemur rtibia
    rtibia rfoot
    rfoot rtoes
    lowerback upperback
    upperback thorax
    thorax lowerneck lclavicle rclavicle
    lowerneck upperneck
    upperneck head
    lclavicle lhumerus
    lhumerus lradius
    lradius lwrist
    lwrist lhand lthumb
    lhand lfingers
    rclavicle rhumerus
    rhumerus rradius
    rradius rwrist
    rwrist rhand rthumb
    rhand rfingers
  end

#!OML:ASF H:\IndianDance\Patient Classification 1\Patient 1\Session 1\dancer.ASF
:FULLY-SPECIFIED
:DEGREES
836
root 7.76757 15.1795 -1.49183 -166.712 -0.956004 -174.418
lowerback 2.14512 -2.83684 1.28837
upperback -11.1733 -4.73179 5.9835
thorax -12.9143 -2.65395 6.62765
lowerneck -10.6237 -14.0317 -6.0602
upperneck -0.547355 -18.2357 18.2614
head 3.88964 -8.11473 5.05333
rclavicle 7.14631e-014 2.38542e-015
rhumerus 21.1 -36.1222 -26.5015
rradius 66.4598
rwrist -92.9125
rhand -36.5432 -30.2695
rfingers 7.12502
rthumb -9.63389 -60.0292
lclavicle 7.14631e-014 2.38542e-015
lhumerus -7.5546 -49.8149 25.819
lradius 126.31
lwrist 76.2773
lhand 5.1526 32.4073
lfingers 7.12502
lthumb 30.5155 59.9
rfemur -43.8915 -14.1017 32.7849
rtibia 57.89
rfoot -10.8969 -28.5263
rtoes 22.9608
lfemur -14.3331 17.7691 -37.4581
ltibia 35.4859
lfoot -4.02558 4.34603
ltoes -1.38066
837
root 7.77538 15.1591 -1.4848 -166.828 -1.20616 -174.23
lowerback 2.31894 -2.98838 0.978482
upperback -11.0143 -4.91263 6.09437
thorax -12.7838 -2.69011 6.94026
lowerneck -10.6442 -13.9594 -6.01543
upperneck -0.348333 -18.1752 18.6037
head 3.98125 -8.04789 5.14819
rclavicle -1.15295e-014 -3.57812e-014
rhumerus 19.7297 -34.7768 -25.7973
rradius 67.9458
rwrist -92.8642
rhand -36.785 -31.1655
rfingers 7.12502
rthumb -9.86723 -60.9143
lclavicle -1.15295e-014 -3.57812e-014
lhumerus -6.63485 -50.1023 24.8488
lradius 126.235
lwrist 75.6462
lhand 6.13733 33.0795
lfingers 7.12502
lthumb 31.4542 60.3934
rfemur -44.5426 -13.8028 33.2667
rtibia 58.7327
rfoot -10.7843 -27.7596
rtoes 23.2568
lfemur -13.8023 17.0096 -37.2101
ltibia 34.9617
lfoot -4.57328 4.87866
ltoes -2.20897
838
root 7.78213 15.1371 -1.48097 -167.017 -1.39747 -174.063
lowerback 2.52549 -3.1228 0.658224
upperback -10.8309 -5.06596 6.17257
thorax -12.6474 -2.71199 7.21952
lowerneck -10.6675 -13.8849 -5.96932
upperneck -0.116129 -18.1176 18.9341
head 4.08211 -7.9801 5.23893
rclavicle -2.73329e-014 3.97569e-014
rhumerus 18.2836 -33.3133 -25.064
rradius 69.5164
rwrist -92.6499
rhand -37.0029 -31.9204
rfingers 7.12502
rthumb -10.0775 -61.6591
lclavicle -2.73329e-014 3.97569e-014
lhumerus -5.74819 -50.4233 23.9117
lradius 126.159
lwrist 74.8442
lhand 7.13735 34.0763
lfingers 7.12502
lthumb 32.4064 61.1998
rfemur -45.012 -13.5011 33.7218
rtibia 59.364
rfoot -10.7362 -26.2218
rtoes 22.3805
lfemur -13.3236 16.4385 -36.9456
ltibia 34.6796
lfoot -5.14117 5.24501
ltoes -2.62243
839
root 7.78751 15.1133 -1.48084 -167.262 -1.5209 -173.929
lowerback 2.74196 -3.23701 0.321471
upperback -10.6328 -5.1922 6.22151
thorax -12.5025 -2.72061 7.47172
lowerneck -10.6682 -13.8059 -5.9555
upperneck 0.137683 -18.0564 19.2589
head 4.1876 -7.91087 5.33473
rclavicle 2.16675e-014 3.18055e-014
rhumerus 16.8081 -31.7241 -24.3351
rradius 71.1639
rwrist -92.2793
rhand -37.2193 -32.5972
rfingers 7.12502
rthumb -10.2862 -62.3256
lclavicle 2.16675e-014 3.18055e-014
lhumerus -4.93137 -50.7849 23.051
lradius 126.052
lwrist 73.7262
lhand 7.59379 34.2314
lfingers 7.12502
lthumb 32.8407 61.2651
rfemur -45.3092 -13.186 34.1488
rtibia 59.7523
rfoot -10.9168 -23.9428
rtoes 20.3099
lfemur -12.9147 16.0962 -36.6951
ltibia 34.6386
lfoot -5.71796 5.45335
ltoes -2.92663
840
root 7.79115 15.088 -1.48486 -167.538 -1.57643 -173.837
lowerback 2.94414 -3.32361 -0.0313784
upperback -10.4289 -5.28443 6.23562
thorax -12.3467 -2.71407 7.68812
lowerneck -10.6673 -13.7267 -5.95698
upperneck 0.426679 -18.0006 19.5558
head 4.30218 -7.84369 5.42406
rclavicle 4.6615e-014 5.80451e-014
rhumerus 15.3107 -30.0286 -23.6183
rradius 72.8861
rwrist -91.8013
rhand -37.4576 -33.2521
rfingers 7.12502
rthumb -10.5161 -62.969
lclavicle 4.6615e-014 5.80451e-014
lhumerus -4.15583 -51.2027 22.2619
lradius 125.908
lwrist 72.2817
lhand 7.97629 34.3352
lfingers 7.12502
lthumb 33.2045 61.292
rfemur -45.4478 -12.851 34.5518
rtibia 59.8629
rfoot -11.4811 -21.0518
rtoes 17.2032
lfemur -12.6045 15.9885 -36.4688
ltibia 34.8488
lfoot -6.29053 5.47383
ltoes -2.99003
841
root 7.79285 15.0611 -1.49306 -167.821 -1.57008 -173.787
lowerback 3.10778 -3.3873 -0.395881
upperback -10.2305 -5.35207 6.22246
thorax -12.1776 -2.69859 7.87452
lowerneck -10.6706 -13.6439 -5.9846
upperneck 0.767683 -17.9476 19.8174
head 4.43174 -7.77696 5.50592
rclavicle 6.60959e-014 -3.65764e-014
rhumerus 13.8382 -28.2339 -22.958
rradius 74.6716
rwrist -91.2681
rhand -37.7108 -33.902
rfingers 7.12502
rthumb -10.7603 -63.6064
lclavicle 6.60959e-014 -3.65764e-014
lhumerus -3.4552 -51.671 21.5677
lradius 125.723
lwrist 70.4975
lhand 8.33616 34.3168
lfingers 7.12502
lthumb 33.5466 61.2001
rfemur -45.4457 -12.4839 34.9382
rtibia 59.6647
rfoot -12.4772 -17.7646
rtoes 13.4111
lfemur -12.4334 16.1184 -36.271
ltibia 35.3351
lfoot -6.84791 5.28852
ltoes -2.70605
842
root 7.79248 15.0331 -1.50543 -168.089 -1.51632 -173.783
lowerback 3.2141 -3.42956 -0.768648
upperback -10.0459 -5.39848 6.18377
thorax -11.9936 -2.67688 8.03029
lowerneck -10.6899 -13.5564 -6.03366
upperneck 1.16665 -17.8969 20.0345
head 4.57859 -7.70996 5.57633
rclavicle 5.42682e-014 3.4191e-014
rhumerus 12.4025 -26.363 -22.3692
rradius 76.516
rwrist -90.7149
rhand -37.9547 -34.5413
rfingers 7.12502
rthumb -10.9956 -64.2334
lclavicle 5.42682e-014 3.4191e-014
lhumerus -2.82731 -52.1906 20.9713
lradius 125.503
lwrist 68.4121
lhand 8.67732 34.1305
lfingers 7.12502
lthumb 33.8708 60.9428
rfemur -45.3178 -12.0726 35.3036
rtibia 59.1356
rfoot -13.8194 -14.312
rtoes 9.66918
lfemur -12.4387 16.471 -36.1013
ltibia 36.1264
lfoot -7.36382 4.87364
ltoes -2.00791
843
root 7.79019 15.0038 -1.52157 -168.325 -1.43503 -173.813
lowerback 3.24525 -3.46107 -1.13765
upperback -9.87814 -5.43753 6.12357
thorax -11.7864 -2.6575 8.15293
lowerneck -10.748 -13.4677 -6.10076
upperneck 1.64942 -17.858 20.2099
head 4.75573 -7.64386 5.63279
rclavicle -6.2319e-014 3.10104e-014
rhumerus 11.0369 -24.4273 -21.8895
rradius 78.405
rwrist -90.139
rhand -38.206 -35.1344
rfingers 7.12502
rthumb -11.238 -64.8134
lclavicle -6.2319e-014 3.10104e-014
lhumerus -2.27602 -52.7442 20.4601
lradius 125.257
lwrist 66.0951
lhand 8.84429 33.8085
lfingers 7.12502
lthumb 34.0294 60.5857
rfemur -45.0843 -11.6122 35.6568
rtibia 58.2852
rfoot -15.3339 -10.9985
rtoes 6.57337
lfemur -12.6522 17.0313 -35.944
ltibia 37.2423
lfoot -7.78975 4.21321
ltoes -1.02369
844
root 7.78627 14.9727 -1.54098 -168.523 -1.34659 -173.875
lowerback 3.1988 -3.49403 -1.49593
upperback -9.72848 -5.48427 6.04586
thorax -11.5545 -2.64829 8.24444
lowerneck -10.8477 -13.3708 -6.1906
upperneck 2.222 -17.8216 20.3516
head 4.96592 -7.57306 5.67968
rclavicle -5.30755e-014 4.92986e-014
rhumerus 9.75545 -22.4385 -21.545
rradius 80.3329
rwrist -89.5233
rhand -38.4252 -35.6602
rfingers 7.12502
rthumb -11.4493 -65.3275
lclavicle -5.30755e-014 4.92986e-014
lhumerus -1.83518 -53.329 20.0421
lradius 125.005
lwrist 63.5904
lhand 8.7631 33.3222
lfingers 7.12502
lthumb 33.9523 60.1166
rfemur -44.7547 -11.1119 35.9892
rtibia 57.1666
rfoot -16.766 -8.2223
rtoes 4.38788
lfemur -13.0834 17.7719 -35.7907
ltibia 38.6909
lfoot -8.06611 3.32159
ltoes 0.00904036
845
root 7.78125 14.9391 -1.5627 -168.679 -1.2711 -173.957
lowerback 3.076 -3.53197 -1.83822
upperback -9.59616 -5.54163 5.95422
thorax -11.2974 -2.65086 8.30609
lowerneck -10.989 -13.2599 -6.28706
upperneck 2.87231 -17.7778 20.4512
head 5.20212 -7.49383 5.71411
rclavicle -2.83268e-014 -8.74653e-015
rhumerus 8.55601 -20.4108 -21.3183
rradius 82.274
rwrist -88.8427
rhand -38.5816 -36.0532
rfingers 7.12502
rthumb -11.6002 -65.7121
lclavicle -2.83268e-014 -8.74653e-015
lhumerus -1.46866 -53.9408 19.6829
lradius 124.762
lwrist 60.9446
lhand 8.38376 32.6398
lfingers 7.12502
lthumb 33.5918 59.5133
rfemur -44.3434 -10.5604 36.2768
rtibia 55.8925
rfoot -17.9612 -6.24641
rtoes 3.49245
lfemur -13.7338 18.6777 -35.6331
ltibia 40.4606
lfoot -8.11794 2.25547
ltoes 0.0717804
